<svg xmlns="http://www.w3.org/2000/svg" baseProfile="tiny" version="1.2" viewBox="0 0 1200 675">
  <circle cx="754" cy="588" r="2.5" fill="#FFF" fill-opacity=".8627"/>
  <circle cx="14" cy="237" r="3" fill="#FFF" fill-opacity=".7451"/>
  <circle cx="951" cy="385" r="3" fill="#FFF" fill-opacity=".6745"/>
  <circle cx="1128" cy="40" r="2.5" fill="#FFF" fill-opacity=".7294"/>
  <circle cx="989" cy="344" r="3" fill="#FFF" fill-opacity=".949"/>
  <circle cx="749" cy="315" r="2" fill="#FFF" fill-opacity=".6353"/>
  <circle cx="195" cy="484" r="3" fill="#FFF" fill-opacity=".5176"/>
  <circle cx="423" cy="562" r="2.5" fill="#FFF" fill-opacity=".9255"/>
  <circle cx="1149" cy="46" r="3" fill="#FFF" fill-opacity=".8824"/>
  <circle cx="663" cy="506" r="3" fill="#FFF" fill-opacity=".5882"/>
  <circle cx="275" cy="261" r="1.5" fill="#FFF" fill-opacity=".8667"/>
  <circle cx="99" cy="216" r="2" fill="#FFF" fill-opacity=".5686"/>
  <circle cx="713" cy="409" r="2.5" fill="#FFF" fill-opacity=".7804"/>
  <circle cx="31" cy="449" r="3" fill="#FFF" fill-opacity=".7765"/>
  <circle cx="753" cy="54" r="3" fill="#FFF" fill-opacity=".8118"/>
  <circle cx="646" cy="291" r="3" fill="#FFF" fill-opacity=".8863"/>
  <circle cx="905" cy="492" r="2.5" fill="#FFF" fill-opacity=".7725"/>
  <circle cx="569" cy="248" r="2" fill="#FFF" fill-opacity=".7529"/>
  <circle cx="420" cy="667" r="2.5" fill="#FFF" fill-opacity=".7216"/>
  <circle cx="492" cy="481" r="2" fill="#FFF" fill-opacity=".6314"/>
  <circle cx="1016" cy="183" r="2" fill="#FFF" fill-opacity=".8824"/>
  <circle cx="315" cy="272" r="2" fill="#FFF" fill-opacity=".8824"/>
  <circle cx="41" cy="631" r="2" fill="#FFF" fill-opacity=".9882"/>
  <circle cx="954" cy="599" r="2.5" fill="#FFF" fill-opacity=".5725"/>
  <circle cx="838" cy="516" r="1.5" fill="#FFF" fill-opacity=".7961"/>
  <circle cx="680" cy="248" r="3" fill="#FFF" fill-opacity=".9255"/>
  <circle cx="222" cy="546" r="1.5" fill="#FFF" fill-opacity=".5882"/>
  <circle cx="299" cy="95" r="3" fill="#FFF" fill-opacity=".851"/>
  <circle cx="575" cy="580" r="2.5" fill="#FFF" fill-opacity=".5412"/>
  <circle cx="784" cy="583" r="2.5" fill="#FFF" fill-opacity=".5451"/>
  <circle cx="939" cy="111" r="2.5" fill="#FFF" fill-opacity=".9725"/>
  <circle cx="490" cy="449" r="2.5" fill="#FFF" fill-opacity=".549"/>
  <circle cx="630" cy="184" r="2" fill="#FFF" fill-opacity=".6196"/>
  <circle cx="400" cy="515" r="2.5" fill="#FFF" fill-opacity=".6431"/>
  <circle cx="26" cy="340" r="1.5" fill="#FFF" fill-opacity=".6667"/>
  <circle cx="379" cy="118" r="1.5" fill="#FFF" fill-opacity=".6275"/>
  <circle cx="859" cy="240" r="2.5" fill="#FFF" fill-opacity=".8118"/>
  <circle cx="692" cy="670" r="1.5" fill="#FFF" fill-opacity=".9843"/>
  <circle cx="1115" cy="186" r="2.5" fill="#FFF" fill-opacity=".5765"/>
  <circle cx="149" cy="320" r="2" fill="#FFF" fill-opacity=".5412"/>
  <circle cx="470" cy="469" r="1.5" fill="#FFF" fill-opacity=".902"/>
  <circle cx="592" cy="477" r="2" fill="#FFF" fill-opacity=".7059"/>
  <circle cx="827" cy="53" r="3" fill="#FFF" fill-opacity=".8824"/>
  <circle cx="448" cy="41" r="1.5" fill="#FFF" fill-opacity=".5569"/>
  <circle cx="675" cy="451" r="1.5" fill="#FFF" fill-opacity=".7098"/>
  <circle cx="476" cy="113" r="1.5" fill="#FFF" fill-opacity=".9569"/>
  <circle cx="747" cy="413" r="2" fill="#FFF" fill-opacity=".6078"/>
  <circle cx="1050" cy="596" r="2.5" fill="#FFF" fill-opacity=".8314"/>
  <circle cx="355" cy="400" r="2" fill="#FFF" fill-opacity=".9882"/>
  <circle cx="225" cy="157" r="1.5" fill="#FFF" fill-opacity=".9216"/>
  <circle cx="459" cy="572" r="2.5" fill="#FFF" fill-opacity=".8314"/>
  <circle cx="975" cy="225" r="2" fill="#FFF" fill-opacity=".8941"/>
  <circle cx="376" cy="131" r="2.5" fill="#FFF" fill-opacity=".6471"/>
  <circle cx="620" cy="569" r="2" fill="#FFF" fill-opacity=".7412"/>
  <circle cx="612" cy="536" r="2.5" fill="#FFF" fill-opacity=".8314"/>
  <circle cx="792" cy="242" r="1.5" fill="#FFF" fill-opacity=".9216"/>
  <circle cx="271" cy="465" r="3" fill="#FFF" fill-opacity=".5608"/>
  <circle cx="740" cy="376" r="1.5" fill="#FFF" fill-opacity=".898"/>
  <circle cx="378" cy="244" r="2.5" fill="#FFF" fill-opacity=".6431"/>
  <circle cx="417" cy="25" r="2.5" fill="#FFF" fill-opacity=".7608"/>
  <circle cx="1148" cy="51" r="3" fill="#FFF" fill-opacity=".8392"/>
  <circle cx="571" cy="621" r="2" fill="#FFF" fill-opacity=".6588"/>
  <circle cx="893" cy="399" r="2.5" fill="#FFF" fill-opacity=".7725"/>
  <circle cx="950" cy="293" r="1.5" fill="#FFF" fill-opacity=".7412"/>
  <circle cx="547" cy="415" r="1.5" fill="#FFF" fill-opacity=".9529"/>
  <circle cx="1086" cy="173" r="2" fill="#FFF" fill-opacity=".7882"/>
  <circle cx="1023" cy="549" r="2" fill="#FFF" fill-opacity=".851"/>
  <circle cx="1027" cy="214" r="1.5" fill="#FFF" fill-opacity=".7569"/>
  <circle cx="848" cy="598" r="1.5" fill="#FFF" fill-opacity=".9804"/>
  <circle cx="764" cy="365" r="2" fill="#FFF" fill-opacity=".7843"/>
  <circle cx="840" cy="102" r="3" fill="#FFF" fill-opacity=".8549"/>
  <circle cx="633" cy="287" r="3" fill="#FFF" fill-opacity=".7961"/>
  <circle cx="905" cy="18" r="1.5" fill="#FFF" fill-opacity=".5647"/>
  <circle cx="656" cy="292" r="1.5" fill="#FFF" fill-opacity=".5412"/>
  <circle cx="765" cy="174" r="2" fill="#FFF" fill-opacity=".7529"/>
  <circle cx="1195" cy="182" r="2.5" fill="#FFF" fill-opacity=".9294"/>
  <circle cx="924" cy="329" r="2" fill="#FFF" fill-opacity=".949"/>
  <circle cx="732" cy="318" r="2" fill="#FFF" fill-opacity=".5608"/>
  <circle cx="876" cy="643" r="2.5" fill="#FFF" fill-opacity=".5922"/>
  <circle cx="1152" cy="450" r="2" fill="#FFF" fill-opacity=".9373"/>
  <circle cx="149" cy="60" r="3" fill="#FFF" fill-opacity=".6392"/>
  <circle cx="1162" cy="80" r="3" fill="#FFF" fill-opacity=".9137"/>
  <circle cx="1046" cy="3" r="2" fill="#FFF" fill-opacity=".9255"/>
  <circle cx="576" cy="419" r="2.5" fill="#FFF" fill-opacity=".5647"/>
  <circle cx="725" cy="492" r="1.5" fill="#FFF" fill-opacity=".7294"/>
  <circle cx="474" cy="424" r="2.5" fill="#FFF" fill-opacity=".651"/>
  <circle cx="785" cy="485" r="3" fill="#FFF" fill-opacity=".9294"/>
  <circle cx="1006" cy="426" r="2.5" fill="#FFF" fill-opacity=".949"/>
  <circle cx="578" cy="285" r="2" fill="#FFF" fill-opacity=".6275"/>
  <circle cx="1125" cy="318" r="3" fill="#FFF" fill-opacity=".7255"/>
  <circle cx="705" cy="379" r="2" fill="#FFF" fill-opacity=".8549"/>
  <circle cx="830" cy="521" r="2.5" fill="#FFF" fill-opacity=".7843"/>
  <circle cx="963" cy="620" r="3" fill="#FFF" fill-opacity=".549"/>
  <circle cx="1015" cy="329" r="1.5" fill="#FFF" fill-opacity=".5608"/>
  <circle cx="1040" cy="552" r="1.5" fill="#FFF" fill-opacity=".6588"/>
  <circle cx="694" cy="233" r="2.5" fill="#FFF" fill-opacity=".8039"/>
  <circle cx="861" cy="441" r="2" fill="#FFF" fill-opacity=".8941"/>
  <circle cx="482" cy="159" r="2.5" fill="#FFF" fill-opacity=".7333"/>
  <circle cx="153" cy="7" r="3" fill="#FFF" fill-opacity=".8941"/>
  <circle cx="791" cy="520" r="1.5" fill="#FFF" fill-opacity=".9961"/>
  <circle cx="393" cy="421" r="1.5" fill="#FFF" fill-opacity=".6392"/>
  <circle cx="1053" cy="276" r="3" fill="#FFF" fill-opacity=".8392"/>
  <circle cx="371" cy="557" r="2" fill="#FFF" fill-opacity=".6824"/>
  <circle cx="83" cy="123" r="2" fill="#FFF" fill-opacity=".8314"/>
  <circle cx="540" cy="241" r="1.5" fill="#FFF" fill-opacity=".6588"/>
  <circle cx="602" cy="468" r="3" fill="#FFF" fill-opacity=".5882"/>
  <circle cx="998" cy="547" r="2.5" fill="#FFF" fill-opacity=".6471"/>
  <circle cx="759" cy="299" r="3" fill="#FFF" fill-opacity=".6275"/>
  <circle cx="764" cy="175" r="2.5" fill="#FFF" fill-opacity=".8235"/>
  <circle cx="353" cy="335" r="3" fill="#FFF" fill-opacity=".502"/>
  <circle cx="1107" cy="57" r="3" fill="#FFF" fill-opacity=".8039"/>
  <circle cx="868" cy="75" r="2.5" fill="#FFF" fill-opacity=".5451"/>
  <circle cx="269" cy="417" r="1.5" fill="#FFF" fill-opacity=".5373"/>
  <circle cx="142" cy="298" r="1.5" fill="#FFF" fill-opacity=".902"/>
  <circle cx="400" cy="435" r="2" fill="#FFF" fill-opacity=".6314"/>
  <circle cx="335" cy="131" r="3" fill="#FFF" fill-opacity=".8784"/>
  <circle cx="84" cy="430" r="1.5" fill="#FFF" fill-opacity=".5529"/>
  <circle cx="1090" cy="510" r="1.5" fill="#FFF" fill-opacity=".8667"/>
  <circle cx="51" cy="162" r="2" fill="#FFF" fill-opacity=".6039"/>
  <circle cx="521" cy="29" r="2.5" fill="#FFF" fill-opacity=".8863"/>
  <circle cx="333" cy="564" r="3" fill="#FFF" fill-opacity=".702"/>
  <circle cx="28" cy="539" r="1.5" fill="#FFF" fill-opacity=".5961"/>
  <circle cx="404" cy="445" r="3" fill="#FFF" fill-opacity=".902"/>
  <circle cx="389" cy="166" r="2.5" fill="#FFF" fill-opacity=".8471"/>
  <circle cx="357" cy="75" r="2.5" fill="#FFF" fill-opacity=".5294"/>
  <circle cx="338" cy="619" r="2.5" fill="#FFF" fill-opacity=".7098"/>
  <circle cx="1010" cy="477" r="2" fill="#FFF" fill-opacity=".5725"/>
  <circle cx="975" cy="22" r="1.5" fill="#FFF" fill-opacity=".8706"/>
  <circle cx="666" cy="81" r="1.5" fill="#FFF" fill-opacity=".7451"/>
  <circle cx="304" cy="233" r="2" fill="#FFF" fill-opacity=".8549"/>
  <circle cx="1121" cy="69" r="2" fill="#FFF" fill-opacity=".9333"/>
  <circle cx="76" cy="166" r="1.5" fill="#FFF" fill-opacity=".7961"/>
  <circle cx="239" cy="242" r="2" fill="#FFF" fill-opacity=".7176"/>
  <circle cx="784" cy="62" r="3" fill="#FFF" fill-opacity=".6"/>
  <circle cx="735" cy="186" r="2.5" fill="#FFF" fill-opacity=".6235"/>
  <circle cx="228" cy="402" r="2" fill="#FFF" fill-opacity=".5843"/>
  <circle cx="343" cy="629" r="2.5" fill="#FFF" fill-opacity=".5216"/>
  <circle cx="704" cy="487" r="2" fill="#FFF" fill-opacity=".5843"/>
  <circle cx="739" cy="278" r="2" fill="#FFF" fill-opacity=".6431"/>
  <circle cx="725" cy="4" r="1.5" fill="#FFF" fill-opacity=".5647"/>
  <circle cx="733" cy="278" r="2" fill="#FFF" fill-opacity=".9608"/>
  <circle cx="346" cy="630" r="2" fill="#FFF" fill-opacity=".6118"/>
  <circle cx="1101" cy="458" r="1.5" fill="#FFF" fill-opacity=".7843"/>
  <circle cx="1165" cy="389" r="3" fill="#FFF" fill-opacity=".9373"/>
  <circle cx="711" cy="3" r="2.5" fill="#FFF" fill-opacity=".651"/>
  <circle cx="577" cy="477" r="2.5" fill="#FFF" fill-opacity=".8118"/>
  <circle cx="801" cy="564" r="3" fill="#FFF" fill-opacity=".9216"/>
  <circle cx="306" cy="257" r="1.5" fill="#FFF" fill-opacity=".5804"/>
  <circle cx="1033" cy="360" r="1.5" fill="#FFF" fill-opacity=".7451"/>
  <circle cx="455" cy="593" r="1.5" fill="#FFF" fill-opacity=".5412"/>
  <circle cx="890" cy="366" r="2.5" fill="#FFF" fill-opacity=".8078"/>
  <circle cx="1194" cy="520" r="2.5" fill="#FFF" fill-opacity=".9176"/>
  <circle cx="629" cy="483" r="1.5" fill="#FFF" fill-opacity=".5216"/>
  <circle cx="741" cy="214" r="2.5" fill="#FFF" fill-opacity=".8431"/>
  <circle cx="154" cy="571" r="2" fill="#FFF" fill-opacity=".702"/>
  <circle cx="426" cy="405" r="3" fill="#FFF" fill-opacity=".5961"/>
  <circle cx="38" cy="403" r="3" fill="#FFF" fill-opacity=".7922"/>
  <circle cx="637" cy="470" r="2" fill="#FFF" fill-opacity=".5922"/>
  <circle cx="736" cy="670" r="2.5" fill="#FFF" fill-opacity=".5059"/>
  <circle cx="621" cy="615" r="1.5" fill="#FFF" fill-opacity=".6353"/>
  <circle cx="337" cy="231" r="1.5" fill="#FFF" fill-opacity=".7882"/>
  <circle cx="902" cy="417" r="3" fill="#FFF" fill-opacity=".6784"/>
  <circle cx="1178" cy="220" r="2.5" fill="#FFF" fill-opacity=".7765"/>
  <circle cx="730" cy="455" r="3" fill="#FFF" fill-opacity=".549"/>
  <circle cx="1004" cy="394" r="1.5" fill="#FFF" fill-opacity=".5882"/>
  <circle cx="660" cy="395" r="1.5" fill="#FFF" fill-opacity=".7137"/>
  <circle cx="440" cy="463" r="1.5" fill="#FFF" fill-opacity=".7961"/>
  <circle cx="458" cy="629" r="2" fill="#FFF" fill-opacity=".8863"/>
  <circle cx="270" cy="39" r="3" fill="#FFF" fill-opacity=".9059"/>
  <circle cx="1050" cy="522" r="2" fill="#FFF" fill-opacity=".9373"/>
  <circle cx="24" cy="601" r="1.5" fill="#FFF" fill-opacity=".8824"/>
  <circle cx="1028" cy="308" r="3" fill="#FFF" fill-opacity=".8471"/>
  <circle cx="1002" cy="593" r="2.5" fill="#FFF" fill-opacity=".502"/>
  <circle cx="851" cy="441" r="2" fill="#FFF" fill-opacity=".6314"/>
  <circle cx="801" cy="568" r="2" fill="#FFF" fill-opacity=".7098"/>
  <circle cx="538" cy="46" r="3" fill="#FFF" fill-opacity=".9294"/>
  <circle cx="1028" cy="148" r="2" fill="#FFF" fill-opacity=".6627"/>
  <circle cx="347" cy="454" r="3" fill="#FFF" fill-opacity=".7647"/>
  <circle cx="1181" cy="456" r="3" fill="#FFF" fill-opacity=".7059"/>
  <circle cx="1152" cy="30" r="1.5" fill="#FFF" fill-opacity=".5451"/>
  <circle cx="290" cy="390" r="3" fill="#FFF" fill-opacity=".8902"/>
  <circle cx="748" cy="167" r="2" fill="#FFF" fill-opacity=".7294"/>
  <circle cx="403" cy="47" r="1.5" fill="#FFF" fill-opacity=".5176"/>
  <circle cx="747" cy="644" r="3" fill="#FFF" fill-opacity=".8039"/>
  <circle cx="193" cy="196" r="3" fill="#FFF" fill-opacity=".5529"/>
  <circle cx="300" cy="450" r="1.5" fill="#FFF" fill-opacity=".7255"/>
  <circle cx="396" cy="671" r="3" fill="#FFF" fill-opacity=".5961"/>
  <circle cx="1172" cy="423" r="2.5" fill="#FFF" fill-opacity=".6392"/>
  <circle cx="739" cy="616" r="1.5" fill="#FFF" fill-opacity=".8118"/>
  <circle cx="1075" cy="47" r="2.5" fill="#FFF" fill-opacity=".5647"/>
  <circle cx="629" cy="573" r="1.5" fill="#FFF" fill-opacity=".8745"/>
  <circle cx="662" cy="619" r="1.5" fill="#FFF" fill-opacity=".8902"/>
  <circle cx="470" cy="264" r="3" fill="#FFF" fill-opacity=".9059"/>
  <circle cx="821" cy="362" r="1.5" fill="#FFF" fill-opacity=".9843"/>
  <circle cx="56" cy="586" r="2" fill="#FFF" fill-opacity=".9412"/>
  <circle cx="1007" cy="270" r="3" fill="#FFF" fill-opacity=".8588"/>
  <circle cx="196" cy="156" r="2.5" fill="#FFF" fill-opacity=".7373"/>
  <circle cx="881" cy="305" r="2" fill="#FFF" fill-opacity=".5961"/>
  <circle cx="633" cy="11" r="1.5" fill="#FFF" fill-opacity=".6549"/>
  <circle cx="719" cy="388" r="2" fill="#FFF" fill-opacity=".7176"/>
  <circle cx="270" cy="517" r="3" fill="#FFF" fill-opacity=".7608"/>
  <circle cx="1147" cy="466" r="1.5" fill="#FFF" fill-opacity=".6784"/>
  <circle cx="626" cy="173" r="2" fill="#FFF" fill-opacity=".5294"/>
  <circle cx="170" cy="151" r="3" fill="#FFF" fill-opacity=".7647"/>
  <circle cx="999" cy="195" r="3" fill="#FFF" fill-opacity=".6157"/>
  <circle cx="560" cy="615" r="2.5" fill="#FFF" fill-opacity=".9804"/>
  <circle cx="625" cy="511" r="3" fill="#FFF" fill-opacity=".5373"/>
  <circle cx="57" cy="654" r="3" fill="#FFF" fill-opacity=".9608"/>
  <circle cx="975" cy="60" r="2.5" fill="#FFF" fill-opacity=".6471"/>
  <circle cx="707" cy="524" r="2" fill="#FFF" fill-opacity=".749"/>
  <circle cx="160" cy="638" r="1.5" fill="#FFF" fill-opacity=".549"/>
  <circle cx="331" cy="503" r="2" fill="#FFF" fill-opacity=".7373"/>
  <circle cx="284" cy="383" r="3" fill="#FFF" fill-opacity=".6471"/>
  <circle cx="1001" cy="304" r="2" fill="#FFF" fill-opacity=".9922"/>
  <circle cx="859" cy="427" r="3" fill="#FFF" fill-opacity=".7922"/>
  <circle cx="619" cy="59" r="1.5" fill="#FFF" fill-opacity=".9294"/>
  <circle cx="1090" cy="612" r="2.5" fill="#FFF" fill-opacity=".6902"/>
  <circle cx="293" cy="577" r="2" fill="#FFF" fill-opacity=".5804"/>
  <circle cx="336" cy="259" r="1.5" fill="#FFF" fill-opacity=".6706"/>
  <circle cx="1017" cy="280" r="2" fill="#FFF" fill-opacity=".5059"/>
  <circle cx="1013" cy="77" r="2" fill="#FFF" fill-opacity=".8745"/>
  <circle cx="816" cy="42" r="2.5" fill="#FFF" fill-opacity=".5255"/>
  <circle cx="135" cy="490" r="2" fill="#FFF" fill-opacity=".6392"/>
  <circle cx="193" cy="484" r="2" fill="#FFF" fill-opacity=".8588"/>
  <circle cx="248" cy="672" r="2" fill="#FFF" fill-opacity=".5725"/>
  <circle cx="36" cy="383" r="3" fill="#FFF" fill-opacity=".5961"/>
  <circle cx="1160" cy="269" r="1.5" fill="#FFF" fill-opacity=".6392"/>
  <circle cx="18" cy="433" r="2.5" fill="#FFF" fill-opacity=".9804"/>
  <circle cx="609" cy="480" r="2" fill="#FFF" fill-opacity=".5255"/>
  <circle cx="525" cy="202" r="2" fill="#FFF" fill-opacity=".5647"/>
  <circle cx="483" cy="182" r="1.5" fill="#FFF" fill-opacity=".8941"/>
  <circle cx="171" cy="312" r="2" fill="#FFF" fill-opacity=".749"/>
  <circle cx="384" cy="317" r="1.5" fill="#FFF" fill-opacity=".5843"/>
  <circle cx="902" cy="44" r="2.5" fill="#FFF" fill-opacity=".7843"/>
  <circle cx="707" cy="78" r="2" fill="#FFF" fill-opacity=".7333"/>
  <circle cx="1006" cy="188" r="1.5" fill="#FFF" fill-opacity=".9216"/>
  <circle cx="27" cy="362" r="1.5" fill="#FFF" fill-opacity=".6196"/>
  <circle cx="899" cy="318" r="2" fill="#FFF" fill-opacity=".9647"/>
  <circle cx="935" cy="44" r="1.5" fill="#FFF" fill-opacity=".698"/>
  <circle cx="679" cy="169" r="2.5" fill="#FFF" fill-opacity=".7098"/>
  <circle cx="193" cy="343" r="1.5" fill="#FFF" fill-opacity=".8157"/>
  <circle cx="1055" cy="288" r="2.5" fill="#FFF" fill-opacity=".7451"/>
  <circle cx="1042" cy="117" r="2" fill="#FFF"/>
  <circle cx="626" cy="333" r="3" fill="#FFF" fill-opacity=".7804"/>
  <circle cx="868" cy="597" r="1.5" fill="#FFF" fill-opacity=".7216"/>
  <circle cx="100" cy="141" r="3" fill="#FFF" fill-opacity=".7843"/>
  <circle cx="54" cy="38" r="1.5" fill="#FFF" fill-opacity=".9843"/>
  <circle cx="791" cy="656" r="3" fill="#FFF" fill-opacity=".8706"/>
  <circle cx="245" cy="304" r="3" fill="#FFF" fill-opacity=".502"/>
  <circle cx="935" cy="519" r="3" fill="#FFF" fill-opacity=".9686"/>
  <circle cx="509" cy="77" r="3" fill="#FFF" fill-opacity=".8118"/>
  <circle cx="149" cy="293" r="1.5" fill="#FFF" fill-opacity=".5765"/>
  <circle cx="146" cy="433" r="2" fill="#FFF" fill-opacity=".7569"/>
  <circle cx="373" cy="263" r="1.5" fill="#FFF" fill-opacity=".9725"/>
  <circle cx="1076" cy="373" r="3" fill="#FFF" fill-opacity=".8431"/>
  <circle cx="947" cy="57" r="1.5" fill="#FFF" fill-opacity=".9373"/>
  <circle cx="112" cy="413" r="2.5" fill="#FFF" fill-opacity=".8353"/>
  <circle cx="672" cy="109" r="2.5" fill="#FFF" fill-opacity=".9059"/>
  <circle cx="256" cy="631" r="2.5" fill="#FFF" fill-opacity=".8157"/>
  <circle cx="104" cy="332" r="2" fill="#FFF" fill-opacity=".5686"/>
  <circle cx="848" cy="244" r="2.5" fill="#FFF" fill-opacity=".7373"/>
  <circle cx="715" cy="487" r="2" fill="#FFF" fill-opacity=".8118"/>
  <circle cx="812" cy="543" r="2.5" fill="#FFF" fill-opacity=".8"/>
  <circle cx="770" cy="619" r="2.5" fill="#FFF" fill-opacity=".5333"/>
  <circle cx="225" cy="355" r="2.5" fill="#FFF" fill-opacity=".7176"/>
  <circle cx="274" cy="518" r="1.5" fill="#FFF" fill-opacity=".7098"/>
  <circle cx="223" cy="205" r="1.5" fill="#FFF" fill-opacity=".9922"/>
  <circle cx="558" cy="142" r="2.5" fill="#FFF" fill-opacity=".7725"/>
  <circle cx="867" cy="140" r="3" fill="#FFF" fill-opacity=".9255"/>
  <circle cx="921" cy="111" r="2" fill="#FFF" fill-opacity=".5059"/>
  <circle cx="696" cy="505" r="1.5" fill="#FFF" fill-opacity=".9294"/>
  <circle cx="286" cy="8" r="2.5" fill="#FFF" fill-opacity=".5529"/>
  <circle cx="522" cy="627" r="3" fill="#FFF" fill-opacity=".5882"/>
  <circle cx="152" cy="76" r="1.5" fill="#FFF" fill-opacity=".949"/>
  <circle cx="456" cy="12" r="1.5" fill="#FFF" fill-opacity=".6627"/>
  <circle cx="107" cy="490" r="2.5" fill="#FFF" fill-opacity=".9176"/>
  <circle cx="764" cy="317" r="2.5" fill="#FFF" fill-opacity=".9176"/>
  <circle cx="698" cy="498" r="2" fill="#FFF" fill-opacity=".7451"/>
  <circle cx="528" cy="18" r="1.5" fill="#FFF" fill-opacity=".7647"/>
  <circle cx="539" cy="18" r="3" fill="#FFF" fill-opacity=".5529"/>
  <circle cx="827" cy="316" r="1.5" fill="#FFF" fill-opacity=".8353"/>
  <circle cx="1053" cy="575" r="2" fill="#FFF" fill-opacity=".5961"/>
  <circle cx="929" cy="255" r="2.5" fill="#FFF" fill-opacity=".9843"/>
  <circle cx="560" cy="379" r="1.5" fill="#FFF" fill-opacity=".9647"/>
  <circle cx="252" cy="74" r="2" fill="#FFF" fill-opacity=".7098"/>
  <circle cx="1200" cy="566" r="3" fill="#FFF" fill-opacity=".6667"/>
  <circle cx="663" cy="598" r="2" fill="#FFF" fill-opacity=".6902"/>
  <circle cx="1200" cy="500" r="1.5" fill="#FFF" fill-opacity=".7686"/>
  <circle cx="766" cy="639" r="3" fill="#FFF" fill-opacity=".9176"/>
  <circle cx="981" cy="230" r="3" fill="#FFF" fill-opacity=".7765"/>
  <circle cx="151" cy="279" r="2" fill="#FFF" fill-opacity=".6706"/>
  <circle cx="1191" cy="109" r="3" fill="#FFF" fill-opacity=".8706"/>
  <circle cx="1198" cy="667" r="3" fill="#FFF" fill-opacity=".7804"/>
  <circle cx="1104" cy="157" r="2.5" fill="#FFF" fill-opacity=".6314"/>
  <circle cx="941" cy="293" r="3" fill="#FFF" fill-opacity=".6157"/>
  <circle cx="513" cy="540" r="1.5" fill="#FFF" fill-opacity=".8588"/>
  <circle cx="926" cy="629" r="2" fill="#FFF" fill-opacity=".9765"/>
  <circle cx="551" cy="405" r="2" fill="#FFF" fill-opacity=".6627"/>
  <circle cx="35" cy="429" r="2" fill="#FFF" fill-opacity=".749"/>
  <circle cx="774" cy="96" r="2.5" fill="#FFF" fill-opacity=".651"/>
  <circle cx="599" cy="455" r="2" fill="#FFF" fill-opacity=".9451"/>
  <circle cx="188" cy="523" r="3" fill="#FFF" fill-opacity=".7451"/>
  <circle cx="1199" cy="276" r="2" fill="#FFF" fill-opacity=".9255"/>
  <circle cx="944" cy="532" r="2" fill="#FFF" fill-opacity=".8078"/>
  <circle cx="586" cy="252" r="2" fill="#FFF" fill-opacity=".8784"/>
  <circle cx="508" cy="363" r="2" fill="#FFF" fill-opacity=".8627"/>
  <circle cx="715" cy="427" r="2" fill="#FFF" fill-opacity=".898"/>
  <circle cx="1" cy="434" r="2.5" fill="#FFF" fill-opacity=".9333"/>
  <circle cx="535" cy="342" r="2.5" fill="#FFF" fill-opacity=".7725"/>
  <circle cx="762" cy="578" r="3" fill="#FFF" fill-opacity=".7294"/>
  <circle cx="163" cy="432" r="2.5" fill="#FFF" fill-opacity=".5843"/>
  <circle cx="41" cy="674" r="2.5" fill="#FFF" fill-opacity=".6627"/>
  <circle cx="652" cy="476" r="2.5" fill="#FFF" fill-opacity=".5412"/>
  <circle cx="358" cy="422" r="3" fill="#FFF" fill-opacity=".6392"/>
  <circle cx="756" cy="3" r="2.5" fill="#FFF" fill-opacity=".5176"/>
  <circle cx="728" cy="18" r="2.5" fill="#FFF" fill-opacity=".8627"/>
  <circle cx="782" cy="261" r="2" fill="#FFF" fill-opacity=".9333"/>
  <circle cx="736" cy="361" r="2" fill="#FFF" fill-opacity=".9255"/>
  <circle cx="644" cy="383" r="2.5" fill="#FFF" fill-opacity=".6235"/>
  <circle cx="817" cy="507" r="2.5" fill="#FFF" fill-opacity=".9961"/>
  <circle cx="798" cy="180" r="1.5" fill="#FFF" fill-opacity=".9412"/>
  <circle cx="459" cy="472" r="3" fill="#FFF" fill-opacity=".9882"/>
  <circle cx="302" cy="350" r="2" fill="#FFF" fill-opacity=".9608"/>
  <circle cx="1116" cy="395" r="2.5" fill="#FFF" fill-opacity=".8431"/>
  <circle cx="855" cy="674" r="1.5" fill="#FFF" fill-opacity=".9569"/>
  <circle cx="483" cy="632" r="2.5" fill="#FFF" fill-opacity=".8118"/>
  <circle cx="265" cy="522" r="2.5" fill="#FFF" fill-opacity=".8549"/>
  <circle cx="536" cy="159" r="2.5" fill="#FFF" fill-opacity=".8588"/>
  <circle cx="1011" cy="202" r="3" fill="#FFF" fill-opacity=".6235"/>
  <circle cx="623" cy="672" r="2" fill="#FFF" fill-opacity=".6392"/>
  <circle cx="203" cy="116" r="2.5" fill="#FFF" fill-opacity=".9176"/>
  <circle cx="751" cy="244" r="2.5" fill="#FFF" fill-opacity=".6627"/>
  <circle cx="466" cy="295" r="3" fill="#FFF" fill-opacity=".8275"/>
  <circle cx="864" cy="623" r="2.5" fill="#FFF" fill-opacity=".8392"/>
  <circle cx="839" cy="454" r="2" fill="#FFF" fill-opacity=".9412"/>
  <circle cx="551" cy="519" r="2" fill="#FFF" fill-opacity=".5373"/>
  <circle cx="104" cy="513" r="1.5" fill="#FFF" fill-opacity=".9569"/>
  <circle cx="200" cy="188" r="1.5" fill="#FFF" fill-opacity=".6824"/>
  <circle cx="479" cy="416" r="3" fill="#FFF" fill-opacity=".8824"/>
  <circle cx="992" cy="522" r="2" fill="#FFF" fill-opacity=".7451"/>
  <circle cx="658" cy="362" r="2.5" fill="#FFF" fill-opacity=".651"/>
  <circle cx="774" cy="82" r="2.5" fill="#FFF" fill-opacity=".9137"/>
  <circle cx="845" cy="24" r="1.5" fill="#FFF" fill-opacity=".9216"/>
  <circle cx="319" cy="121" r="2" fill="#FFF" fill-opacity=".6"/>
  <circle cx="271" cy="598" r="1.5" fill="#FFF" fill-opacity=".7098"/>
  <circle cx="352" cy="13" r="1.5" fill="#FFF" fill-opacity=".8392"/>
  <circle cx="215" cy="584" r="2" fill="#FFF" fill-opacity=".698"/>
  <circle cx="98" cy="518" r="2" fill="#FFF" fill-opacity=".5333"/>
  <circle cx="708" cy="370" r="2" fill="#FFF" fill-opacity=".5451"/>
  <circle cx="563" cy="278" r="1.5" fill="#FFF" fill-opacity=".7804"/>
  <circle cx="821" cy="310" r="3" fill="#FFF" fill-opacity=".9137"/>
  <circle cx="857" cy="526" r="2.5" fill="#FFF" fill-opacity=".5843"/>
  <circle cx="40" cy="327" r="1.5" fill="#FFF" fill-opacity=".5373"/>
  <circle cx="807" cy="79" r="2.5" fill="#FFF" fill-opacity=".702"/>
  <circle cx="1148" cy="281" r="3" fill="#FFF" fill-opacity=".6706"/>
  <circle cx="776" cy="21" r="2.5" fill="#FFF" fill-opacity=".6392"/>
  <circle cx="428" cy="141" r="2" fill="#FFF" fill-opacity=".7725"/>
  <circle cx="128" cy="342" r="1.5" fill="#FFF" fill-opacity=".5608"/>
  <circle cx="66" cy="357" r="2.5" fill="#FFF" fill-opacity=".9294"/>
  <circle cx="505" cy="345" r="2" fill="#FFF" fill-opacity=".7255"/>
  <circle cx="528" cy="371" r="2.5" fill="#FFF" fill-opacity=".8549"/>
  <circle cx="497" cy="450" r="1.5" fill="#FFF" fill-opacity=".8667"/>
  <circle cx="396" cy="657" r="3" fill="#FFF" fill-opacity=".5216"/>
  <circle cx="840" cy="370" r="2" fill="#FFF" fill-opacity=".5294"/>
  <circle cx="41" cy="199" r="2.5" fill="#FFF" fill-opacity=".6157"/>
  <circle cx="311" cy="45" r="2.5" fill="#FFF" fill-opacity=".5765"/>
  <circle cx="405" cy="612" r="2.5" fill="#FFF" fill-opacity=".9569"/>
  <circle cx="252" cy="13" r="3" fill="#FFF" fill-opacity=".8196"/>
  <circle cx="239" cy="597" r="2.5" fill="#FFF" fill-opacity=".7647"/>
  <circle cx="240" cy="223" r="3" fill="#FFF" fill-opacity=".6863"/>
  <circle cx="619" cy="293" r="3" fill="#FFF" fill-opacity=".9176"/>
  <circle cx="866" cy="289" r="3" fill="#FFF" fill-opacity=".9725"/>
  <circle cx="18" cy="325" r="2" fill="#FFF" fill-opacity=".7216"/>
  <circle cx="1004" cy="452" r="1.5" fill="#FFF" fill-opacity=".8235"/>
  <circle cx="982" cy="513" r="2" fill="#FFF" fill-opacity=".549"/>
  <circle cx="1037" cy="137" r="3" fill="#FFF" fill-opacity=".6196"/>
  <circle cx="198" cy="381" r="3" fill="#FFF" fill-opacity=".9098"/>
  <circle cx="1021" cy="502" r="1.5" fill="#FFF" fill-opacity=".5804"/>
  <circle cx="416" cy="185" r="1.5" fill="#FFF" fill-opacity=".9255"/>
  <circle cx="1049" cy="98" r="3" fill="#FFF" fill-opacity=".5647"/>
  <circle cx="1088" r="1.5" fill="#FFF" fill-opacity=".6588"/>
  <circle cx="759" cy="649" r="1.5" fill="#FFF"/>
  <circle cx="219" cy="395" r="1.5" fill="#FFF" fill-opacity=".5765"/>
  <circle cx="924" cy="312" r="2.5" fill="#FFF" fill-opacity=".5882"/>
  <circle cx="779" cy="348" r="3" fill="#FFF" fill-opacity=".5686"/>
  <circle cx="495" cy="446" r="1.5" fill="#FFF" fill-opacity=".7098"/>
  <circle cx="978" cy="626" r="1.5" fill="#FFF" fill-opacity=".5961"/>
  <circle cx="1079" cy="652" r="3" fill="#FFF" fill-opacity=".7255"/>
  <circle cx="804" cy="631" r="2" fill="#FFF" fill-opacity=".9569"/>
  <circle cx="674" cy="147" r="2.5" fill="#FFF" fill-opacity=".8196"/>
  <circle cx="1170" cy="287" r="2.5" fill="#FFF"/>
  <circle cx="755" cy="583" r="1.5" fill="#FFF" fill-opacity=".9412"/>
  <circle cx="2" cy="455" r="3" fill="#FFF" fill-opacity=".8157"/>
  <circle cx="640" cy="55" r="1.5" fill="#FFF" fill-opacity=".7333"/>
  <circle cx="428" cy="291" r="2" fill="#FFF" fill-opacity=".7098"/>
  <circle cx="510" cy="4" r="2" fill="#FFF" fill-opacity=".9216"/>
  <circle cx="37" cy="273" r="1.5" fill="#FFF" fill-opacity=".9059"/>
  <circle cx="703" cy="270" r="2" fill="#FFF" fill-opacity=".8039"/>
  <circle cx="41" cy="182" r="1.5" fill="#FFF" fill-opacity=".7647"/>
  <circle cx="132" cy="66" r="3" fill="#FFF" fill-opacity=".7922"/>
  <circle cx="856" cy="149" r="3" fill="#FFF" fill-opacity=".7529"/>
  <circle cx="220" cy="262" r="3" fill="#FFF" fill-opacity=".7569"/>
  <circle cx="1095" cy="226" r="1.5" fill="#FFF" fill-opacity=".8078"/>
  <circle cx="1145" cy="46" r="1.5" fill="#FFF" fill-opacity=".6392"/>
  <circle cx="281" cy="469" r="3" fill="#FFF" fill-opacity=".651"/>
  <circle cx="654" cy="467" r="3" fill="#FFF" fill-opacity=".5098"/>
  <circle cx="243" cy="630" r="2" fill="#FFF" fill-opacity=".8235"/>
  <circle cx="1054" cy="299" r="3" fill="#FFF" fill-opacity=".9294"/>
  <circle cx="592" cy="237" r="1.5" fill="#FFF" fill-opacity=".5451"/>
  <circle cx="445" cy="500" r="1.5" fill="#FFF" fill-opacity=".7059"/>
  <circle cx="1184" cy="85" r="2.5" fill="#FFF" fill-opacity=".6471"/>
  <circle cx="784" cy="579" r="2.5" fill="#FFF" fill-opacity=".8392"/>
  <circle cx="689" cy="651" r="2" fill="#FFF" fill-opacity=".5765"/>
  <circle cx="364" cy="647" r="3" fill="#FFF" fill-opacity=".6471"/>
  <circle cx="810" cy="152" r="1.5" fill="#FFF" fill-opacity=".8078"/>
  <circle cx="774" cy="280" r="3" fill="#FFF" fill-opacity=".9608"/>
  <circle cx="135" cy="240" r="3" fill="#FFF" fill-opacity=".8"/>
  <circle cx="300" cy="410" r="2.5" fill="#FFF" fill-opacity=".5529"/>
  <circle cx="806" cy="91" r="2.5" fill="#FFF" fill-opacity=".5059"/>
  <circle cx="329" cy="90" r="1.5" fill="#FFF" fill-opacity=".8"/>
  <circle cx="999" cy="344" r="3" fill="#FFF" fill-opacity=".7961"/>
  <circle cx="1094" cy="269" r="2" fill="#FFF" fill-opacity=".549"/>
  <circle cx="890" cy="223" r="1.5" fill="#FFF" fill-opacity=".7294"/>
  <circle cx="1161" cy="85" r="1.5" fill="#FFF" fill-opacity=".5255"/>
  <circle cx="934" cy="610" r="2" fill="#FFF" fill-opacity=".7725"/>
  <circle cx="587" cy="544" r="2" fill="#FFF" fill-opacity=".7961"/>
  <circle cx="1110" cy="435" r="3" fill="#FFF" fill-opacity=".9843"/>
  <circle cx="426" cy="663" r="2" fill="#FFF" fill-opacity=".6314"/>
  <circle cx="840" cy="530" r="2.5" fill="#FFF" fill-opacity=".9765"/>
  <circle cx="989" cy="170" r="2.5" fill="#FFF" fill-opacity=".8706"/>
  <circle cx="872" cy="530" r="3" fill="#FFF" fill-opacity=".8392"/>
  <circle cx="703" cy="663" r="2.5" fill="#FFF" fill-opacity=".8196"/>
  <circle cx="523" cy="191" r="1.5" fill="#FFF" fill-opacity=".9255"/>
  <circle cx="142" cy="167" r="1.5" fill="#FFF" fill-opacity=".9529"/>
  <circle cx="273" cy="675" r="1.5" fill="#FFF" fill-opacity=".9529"/>
  <circle cx="1157" cy="535" r="3" fill="#FFF" fill-opacity=".8078"/>
  <circle cx="64" cy="68" r="1.5" fill="#FFF" fill-opacity=".8157"/>
  <circle cx="174" cy="504" r="2.5" fill="#FFF" fill-opacity=".9608"/>
  <circle cx="1002" cy="468" r="3" fill="#FFF" fill-opacity=".5843"/>
  <circle cx="546" cy="446" r="2.5" fill="#FFF" fill-opacity=".8471"/>
  <circle cx="807" cy="280" r="2.5" fill="#FFF" fill-opacity=".8941"/>
  <circle cx="890" cy="412" r="2" fill="#FFF" fill-opacity=".702"/>
  <circle cx="410" cy="63" r="1.5" fill="#FFF" fill-opacity=".8275"/>
  <circle cx="1076" cy="209" r="2.5" fill="#FFF" fill-opacity=".5333"/>
  <circle cx="754" cy="476" r="2" fill="#FFF" fill-opacity=".9176"/>
  <circle cx="620" cy="646" r="3" fill="#FFF" fill-opacity=".5255"/>
  <circle cx="176" cy="394" r="2.5" fill="#FFF" fill-opacity=".6314"/>
  <circle cx="148" cy="93" r="3" fill="#FFF" fill-opacity=".8706"/>
  <circle cx="5" cy="62" r="2.5" fill="#FFF" fill-opacity=".7608"/>
  <circle cx="528" cy="453" r="2.5" fill="#FFF" fill-opacity=".6471"/>
  <circle cx="738" cy="361" r="2" fill="#FFF" fill-opacity=".7333"/>
  <circle cx="838" cy="566" r="2" fill="#FFF" fill-opacity=".8118"/>
  <circle cx="298" cy="435" r="2.5" fill="#FFF" fill-opacity=".9686"/>
  <circle cx="739" cy="405" r="3" fill="#FFF" fill-opacity=".5608"/>
  <circle cx="913" cy="597" r="1.5" fill="#FFF"/>
  <circle cx="1136" cy="309" r="2.5" fill="#FFF" fill-opacity=".6784"/>
  <circle cx="227" cy="115" r="2.5" fill="#FFF" fill-opacity=".7373"/>
  <circle cx="862" cy="326" r="2.5" fill="#FFF" fill-opacity=".7412"/>
  <circle cx="719" cy="177" r="3" fill="#FFF" fill-opacity=".7725"/>
  <circle cx="329" cy="562" r="1.5" fill="#FFF" fill-opacity=".5137"/>
  <circle cx="731" cy="316" r="2" fill="#FFF" fill-opacity=".702"/>
  <circle cx="1036" cy="437" r="2.5" fill="#FFF" fill-opacity=".698"/>
  <circle cx="270" cy="542" r="2.5" fill="#FFF" fill-opacity=".9961"/>
  <circle cx="180" cy="523" r="1.5" fill="#FFF" fill-opacity=".6039"/>
  <circle cx="436" cy="543" r="2" fill="#FFF" fill-opacity=".6941"/>
  <circle cx="580" cy="269" r="2" fill="#FFF" fill-opacity=".7765"/>
  <circle cx="854" cy="27" r="3" fill="#FFF" fill-opacity=".8235"/>
  <circle cx="874" cy="119" r="2.5" fill="#FFF" fill-opacity=".6039"/>
  <circle cx="934" cy="611" r="1.5" fill="#FFF" fill-opacity=".5882"/>
  <circle cx="316" cy="113" r="1.5" fill="#FFF" fill-opacity=".5216"/>
  <circle cx="1080" cy="452" r="3" fill="#FFF" fill-opacity=".7647"/>
  <circle cx="691" cy="439" r="1.5" fill="#FFF" fill-opacity=".8157"/>
  <circle cx="673" cy="118" r="2" fill="#FFF" fill-opacity=".5255"/>
  <circle cx="901" cy="289" r="2.5" fill="#FFF" fill-opacity=".5294"/>
  <circle cx="133" cy="100" r="3" fill="#FFF" fill-opacity=".7059"/>
  <circle cx="315" cy="544" r="3" fill="#FFF" fill-opacity=".5922"/>
  <circle cx="1117" cy="52" r="2.5" fill="#FFF" fill-opacity=".7451"/>
  <circle cx="407" cy="485" r="1.5" fill="#FFF" fill-opacity=".5804"/>
  <circle cx="248" cy="549" r="2" fill="#FFF" fill-opacity=".8078"/>
  <circle cx="735" cy="229" r="1.5" fill="#FFF" fill-opacity=".9098"/>
  <circle cx="1006" cy="60" r="2.5" fill="#FFF" fill-opacity=".8863"/>
  <circle cx="771" cy="443" r="3" fill="#FFF" fill-opacity=".8667"/>
  <circle cx="720" cy="674" r="1.5" fill="#FFF" fill-opacity=".9333"/>
  <circle cx="811" cy="235" r="2" fill="#FFF" fill-opacity=".9137"/>
  <circle cx="989" cy="623" r="1.5" fill="#FFF" fill-opacity=".5294"/>
  <circle cx="421" cy="521" r="1.5" fill="#FFF"/>
  <circle cx="68" cy="29" r="2.5" fill="#FFF" fill-opacity=".749"/>
  <circle cx="104" cy="354" r="2" fill="#FFF" fill-opacity=".9412"/>
  <circle cx="265" cy="272" r="2" fill="#FFF" fill-opacity=".8431"/>
  <circle cx="530" cy="556" r="1.5" fill="#FFF" fill-opacity=".9255"/>
  <circle cx="963" cy="439" r="1.5" fill="#FFF" fill-opacity=".9922"/>
  <circle cx="217" cy="89" r="2" fill="#FFF" fill-opacity=".7882"/>
  <circle cx="1057" cy="389" r="1.5" fill="#FFF" fill-opacity=".549"/>
  <circle cx="556" cy="152" r="2.5" fill="#FFF" fill-opacity=".9647"/>
  <circle cx="876" cy="458" r="2" fill="#FFF" fill-opacity=".7804"/>
  <circle cx="806" cy="327" r="2" fill="#FFF" fill-opacity=".5843"/>
  <circle cx="297" cy="436" r="1.5" fill="#FFF" fill-opacity=".8314"/>
  <circle cx="1181" cy="477" r="2" fill="#FFF" fill-opacity=".8392"/>
  <circle cx="49" cy="6" r="3" fill="#FFF" fill-opacity=".9098"/>
  <circle cx="1194" cy="22" r="2.5" fill="#FFF" fill-opacity=".8275"/>
</svg>